<?xml version="1.0" encoding="UTF-8" standalone="no"?>
<!DOCTYPE svg PUBLIC "-//W3C//DTD SVG 1.1//EN" "http://www.w3.org/Graphics/SVG/1.1/DTD/svg11.dtd">
<svg version="1.1" xmlns="http://www.w3.org/2000/svg" xmlns:xlink="http://www.w3.org/1999/xlink" preserveAspectRatio="xMidYMid meet" viewBox="0 0 640 640" width="640" height="640"><defs><path d="M605.16 320C605.16 477.39 477.39 605.16 320 605.16C162.61 605.16 34.84 477.39 34.84 320C34.84 162.61 162.61 34.84 320 34.84C477.39 34.84 605.16 162.61 605.16 320Z" id="agXtXuDmj"></path><radialGradient id="gradientc3nYr01Wkk" gradientUnits="userSpaceOnUse" cx="320" cy="316.7" dx="559.56" dy="433.19" r="266.38"><stop style="stop-color: #6cff86;stop-opacity: 1" offset="0%"></stop><stop style="stop-color: #48eff9;stop-opacity: 1" offset="100%"></stop></radialGradient><path d="M472.47 372.47C472.47 451.46 404.15 515.6 320 515.6C235.85 515.6 167.53 451.46 167.53 372.47C167.53 293.47 235.85 229.34 320 229.34C404.15 229.34 472.47 293.47 472.47 372.47Z" id="b1GftepPx"></path><radialGradient id="gradienta1Om1qonM4" gradientUnits="userSpaceOnUse" cx="320" cy="283.47" dx="320" dy="424" r="140.52"><stop style="stop-color: #442600;stop-opacity: 1" offset="0%"></stop><stop style="stop-color: #e79622;stop-opacity: 1" offset="100%"></stop></radialGradient><path d="M395.18 191.02C395.18 232.84 361.49 266.79 320 266.79C278.51 266.79 244.82 232.84 244.82 191.02C244.82 149.19 278.51 115.24 320 115.24C361.49 115.24 395.18 149.19 395.18 191.02Z" id="c1sg0THsdR"></path><radialGradient id="gradientisp4woDUn" gradientUnits="userSpaceOnUse" cx="320" cy="238.88" dx="320" dy="133.19" r="105.69"><stop style="stop-color: #f5d2b1;stop-opacity: 1" offset="0%"></stop><stop style="stop-color: #ea971e;stop-opacity: 1" offset="100%"></stop></radialGradient></defs><g><g><g><use xlink:href="#agXtXuDmj" opacity="1" fill="url(#gradientc3nYr01Wkk)"></use><g><use xlink:href="#agXtXuDmj" opacity="1" fill-opacity="0" stroke="#00c2fe" stroke-width="2" stroke-opacity="1"></use></g></g><g><use xlink:href="#b1GftepPx" opacity="1" fill="url(#gradienta1Om1qonM4)"></use></g><g><use xlink:href="#c1sg0THsdR" opacity="1" fill="url(#gradientisp4woDUn)"></use><g><use xlink:href="#c1sg0THsdR" opacity="1" fill-opacity="0" stroke="#0ab4ff" stroke-width="0" stroke-opacity="1"></use></g></g></g></g></svg>