<?xml version="1.0" encoding="UTF-8" standalone="no"?>
<!DOCTYPE svg PUBLIC "-//W3C//DTD SVG 1.1//EN" "http://www.w3.org/Graphics/SVG/1.1/DTD/svg11.dtd">
<svg version="1.1" xmlns="http://www.w3.org/2000/svg" xmlns:xlink="http://www.w3.org/1999/xlink" preserveAspectRatio="xMidYMid meet" viewBox="0 0 640 640" width="640" height="640"><defs><path d="M605.16 320C605.16 477.39 477.39 605.16 320 605.16C162.61 605.16 34.84 477.39 34.84 320C34.84 162.61 162.61 34.84 320 34.84C477.39 34.84 605.16 162.61 605.16 320Z" id="b1h6nUlRuG"></path><radialGradient id="gradientb1CJBgbPdi" gradientUnits="userSpaceOnUse" cx="320" cy="320" dx="577.14" dy="446.37" r="286.52"><stop style="stop-color: #ecedff;stop-opacity: 1" offset="0%"></stop><stop style="stop-color: #ffbb21;stop-opacity: 1" offset="100%"></stop></radialGradient><path d="M472.47 372.47C472.47 451.46 404.15 515.6 320 515.6C235.85 515.6 167.53 451.46 167.53 372.47C167.53 293.47 235.85 229.34 320 229.34C404.15 229.34 472.47 293.47 472.47 372.47Z" id="fBKRYviek"></path><radialGradient id="gradientc3xopgBM7j" gradientUnits="userSpaceOnUse" cx="320" cy="287.87" dx="317.54" dy="482.15" r="194.3"><stop style="stop-color: #4de1ff;stop-opacity: 1" offset="0%"></stop><stop style="stop-color: #08244b;stop-opacity: 1" offset="100%"></stop></radialGradient><path d="M395.18 191.02C395.18 232.84 361.49 266.79 320 266.79C278.51 266.79 244.82 232.84 244.82 191.02C244.82 149.19 278.51 115.24 320 115.24C361.49 115.24 395.18 149.19 395.18 191.02Z" id="aavpPIRxw"></path><radialGradient id="gradientbgDXXAauA" gradientUnits="userSpaceOnUse" cx="320" cy="238.88" dx="320" dy="133.19" r="105.69"><stop style="stop-color: #dbf2f6;stop-opacity: 1" offset="0%"></stop><stop style="stop-color: #00abcc;stop-opacity: 1" offset="100%"></stop></radialGradient></defs><g><g><g><use xlink:href="#b1h6nUlRuG" opacity="1" fill="url(#gradientb1CJBgbPdi)"></use></g><g><use xlink:href="#fBKRYviek" opacity="1" fill="url(#gradientc3xopgBM7j)"></use></g><g><use xlink:href="#aavpPIRxw" opacity="1" fill="url(#gradientbgDXXAauA)"></use></g></g></g></svg>